<svg width="525" height="338" viewBox="0 0 525 338" fill="none" xmlns="http://www.w3.org/2000/svg">
<path d="M166.9 105.3C96.7 89.4 27.7 88.9 0 89.2C59.8 82.4 112.1 82.3 156.8 85.6C156.7 85.5 156.6 85.3 156.6 85.1C140.8 50.3 140 18.3 141 0C141 32.2 149.3 62.1 164 86.1C206.7 89.6 242.1 96.1 269.4 102.6C303.2 110.6 327.6 119.1 344.4 135.5V135.4L524.4 323.4L400.5 233.6L365.6 172.5C378.7 219.9 357.6 278.7 351.1 297C345 314 338.1 327.6 332.8 337.3C332.8 337.4 332.7 337.4 332.7 337.5C332.7 337.4 332.8 337.4 332.8 337.3C319.8 320.4 306.8 303.5 293.8 286.6C295.2 271.2 294.6 247.8 282.8 224.1C260.8 179.7 208.8 153 149.7 153.9C166.4 152.7 194.6 152.9 226.1 164.5C196.1 147.9 177.6 123.3 166.9 105.3ZM325.4 256.5C338.6 290.8 335.5 321.7 332.8 337.2C340.2 318.2 361.8 256 331.7 201C328.3 194.7 323.9 188.1 318.2 181.4C301.9 183.6 277 184.3 249.5 175C271.3 186.3 307.7 210.6 325.4 256.5ZM268.4 142.4C241.8 127.4 211.8 116.6 181.5 108.9C190.8 118.4 201.4 126.3 213.3 132C233.6 141.5 253.5 143.1 268.4 142.4Z" fill="#00ED1B"/>
</svg>
