<svg width="525" height="338" viewBox="0 0 525 338" fill="none" xmlns="http://www.w3.org/2000/svg">
<path d="M357.8 105.3C428.1 89.5 497 88.9 524.7 89.2C464.9 82.4 412.6 82.3 367.9 85.6C368 85.5 368.1 85.3 368.1 85.1C383.8 50.3 384.6 18.3 383.6 0C383.6 32.2 375.3 62.1 360.6 86.1C317.9 89.6 282.5 96.1 255.2 102.6C221.4 110.6 197 119.1 180.2 135.5V135.4L0.199951 323.4L124.1 233.6L159 172.5C145.9 219.9 167 278.7 173.5 297C179.6 314 186.5 327.6 191.8 337.3C191.8 337.4 191.9 337.4 191.9 337.5C191.9 337.4 191.8 337.4 191.8 337.3C204.8 320.4 217.8 303.5 230.8 286.6C229.4 271.2 230 247.8 241.8 224.1C263.8 179.7 315.8 153 374.9 153.9C358.2 152.7 330 152.9 298.5 164.5C328.7 147.9 347.2 123.3 357.8 105.3ZM199.4 256.5C186.2 290.8 189.3 321.7 192 337.2C184.6 318.2 163 256 193.1 201C196.5 194.7 200.9 188.1 206.6 181.4C222.9 183.6 247.8 184.3 275.3 175C253.5 186.3 217.1 210.6 199.4 256.5ZM256.3 142.4C282.9 127.4 312.9 116.6 343.2 108.9C333.9 118.4 323.3 126.3 311.4 132C291.1 141.5 271.3 143.1 256.3 142.4Z" fill="#00ED1B"/>
</svg>
